<?xml version="1.0" encoding="UTF-8" standalone="no"?>
<!-- Created with Inkscape (http://www.inkscape.org/) -->

<svg
   width="576"
   height="864"
   viewBox="0 0 152.4 228.6"
   version="1.1"
   id="svg5"
   inkscape:version="1.2.2 (b0a8486541, 2022-12-01)"
   sodipodi:docname="page.svg"
   inkscape:export-filename="page.pdf"
   inkscape:export-xdpi="96"
   inkscape:export-ydpi="96"
   xmlns:inkscape="http://www.inkscape.org/namespaces/inkscape"
   xmlns:sodipodi="http://sodipodi.sourceforge.net/DTD/sodipodi-0.dtd"
   xmlns="http://www.w3.org/2000/svg"
   xmlns:svg="http://www.w3.org/2000/svg">
  <sodipodi:namedview
     id="namedview7"
     pagecolor="#ffffff"
     bordercolor="#eeeeee"
     borderopacity="1"
     inkscape:showpageshadow="0"
     inkscape:pageopacity="0"
     inkscape:pagecheckerboard="0"
     inkscape:deskcolor="#505050"
     inkscape:document-units="mm"
     showgrid="false"
     inkscape:zoom="2.8284271"
     inkscape:cx="415.42523"
     inkscape:cy="173.59471"
     inkscape:window-width="1880"
     inkscape:window-height="1051"
     inkscape:window-x="40"
     inkscape:window-y="0"
     inkscape:window-maximized="1"
     inkscape:current-layer="layer1" />
  <defs
     id="defs2" />
  <g
     inkscape:label="Layer 1"
     inkscape:groupmode="layer"
     id="layer1">
    <rect
       style="display:none;fill:none;fill-rule:evenodd;stroke:#010101;stroke-width:0.1;stroke-dasharray:none;stroke-opacity:1;paint-order:stroke markers fill"
       id="rect236"
       width="122.58006"
       height="198.78006"
       x="14.909966"
       y="14.909973" />
    <path
       style="fill:none;fill-rule:evenodd;stroke:#005780;stroke-width:0.1;stroke-linecap:round;stroke-dasharray:none;stroke-opacity:0.4;paint-order:stroke markers fill"
       d="M 14.861105,154.05394 H 137.53889"
       id="path983-3" />
    <path
       style="fill:none;fill-rule:evenodd;stroke:#005780;stroke-width:0.1;stroke-linecap:round;stroke-dasharray:none;stroke-opacity:0.4;paint-order:stroke markers fill"
       d="M 14.861105,64.603712 H 137.53889"
       id="path983-7" />
    <path
       style="fill:none;fill-rule:evenodd;stroke:#005780;stroke-width:0.1;stroke-linecap:round;stroke-dasharray:none;stroke-opacity:0.4;paint-order:stroke markers fill"
       d="M 14.861106,74.542626 H 137.53889"
       id="path983-5" />
    <path
       style="fill:none;fill-rule:evenodd;stroke:#005780;stroke-width:0.1;stroke-linecap:round;stroke-dasharray:none;stroke-opacity:0.4;paint-order:stroke markers fill"
       d="M 14.861105,84.48154 H 137.53889"
       id="path983-35" />
    <path
       style="fill:none;fill-rule:evenodd;stroke:#005780;stroke-width:0.1;stroke-linecap:round;stroke-dasharray:none;stroke-opacity:0.4;paint-order:stroke markers fill"
       d="M 14.861105,94.420454 H 137.53889"
       id="path983-62" />
    <path
       style="fill:none;fill-rule:evenodd;stroke:#005780;stroke-width:0.1;stroke-linecap:round;stroke-dasharray:none;stroke-opacity:0.4;paint-order:stroke markers fill"
       d="M 14.861105,104.35937 H 137.53889"
       id="path983-9" />
    <path
       style="fill:none;fill-rule:evenodd;stroke:#005780;stroke-width:0.1;stroke-linecap:round;stroke-dasharray:none;stroke-opacity:0.4;paint-order:stroke markers fill"
       d="M 14.861105,114.29828 H 137.53889"
       id="path983-1" />
    <path
       style="fill:none;fill-rule:evenodd;stroke:#005780;stroke-width:0.1;stroke-linecap:round;stroke-dasharray:none;stroke-opacity:0.4;paint-order:stroke markers fill"
       d="M 14.861105,124.2372 H 137.53889"
       id="path983-2" />
    <path
       style="fill:none;fill-rule:evenodd;stroke:#005780;stroke-width:0.1;stroke-linecap:round;stroke-dasharray:none;stroke-opacity:0.4;paint-order:stroke markers fill"
       d="M 14.861105,134.17611 H 137.53889"
       id="path983-70" />
    <path
       style="fill:none;fill-rule:evenodd;stroke:#005780;stroke-width:0.1;stroke-linecap:round;stroke-dasharray:none;stroke-opacity:0.4;paint-order:stroke markers fill"
       d="M 14.861105,144.11502 H 137.53889"
       id="path983-93" />
    <path
       style="fill:none;fill-rule:evenodd;stroke:#005780;stroke-width:0.1;stroke-linecap:round;stroke-dasharray:none;stroke-opacity:0.4;paint-order:stroke markers fill"
       d="M 14.861106,163.99285 H 137.53889"
       id="path983-60" />
    <path
       style="fill:none;fill-rule:evenodd;stroke:#005780;stroke-width:0.1;stroke-linecap:round;stroke-dasharray:none;stroke-opacity:0.4;paint-order:stroke markers fill"
       d="M 14.861105,173.93176 H 137.53889"
       id="path983-626" />
    <path
       style="fill:none;fill-rule:evenodd;stroke:#005780;stroke-width:0.1;stroke-linecap:round;stroke-dasharray:none;stroke-opacity:0.4;paint-order:stroke markers fill"
       d="M 14.861105,183.87068 H 137.53889"
       id="path983-18" />
    <path
       style="fill:none;fill-rule:evenodd;stroke:#005780;stroke-width:0.1;stroke-linecap:round;stroke-dasharray:none;stroke-opacity:0.4;paint-order:stroke markers fill"
       d="M 14.861105,193.80959 H 137.53889"
       id="path983-79" />
    <path
       style="fill:none;fill-rule:evenodd;stroke:#005780;stroke-width:0.1;stroke-linecap:round;stroke-dasharray:none;stroke-opacity:0.4;paint-order:stroke markers fill"
       d="M 14.861105,203.74851 H 137.53889"
       id="path983-20" />
    <path
       style="fill:none;fill-rule:evenodd;stroke:#005780;stroke-width:0.1;stroke-linecap:round;stroke-dasharray:none;stroke-opacity:0.4;paint-order:stroke markers fill"
       d="M 14.8611,213.68742 H 137.53889"
       id="path983-20-3" />
    <path
       style="display:inline;fill:none;fill-rule:evenodd;stroke:#005780;stroke-width:0.0606655;stroke-linecap:round;stroke-dasharray:none;stroke-opacity:0.4;paint-order:stroke markers fill"
       d="M 92.419986,14.909143 H 137.56907"
       id="path983-23" />
    <path
       style="fill:none;fill-rule:evenodd;stroke:#005780;stroke-width:0.15;stroke-linecap:round;stroke-linejoin:bevel;stroke-dasharray:none;stroke-opacity:0.6;paint-order:stroke markers fill"
       d="M 14.861106,24.848057 H 137.53889"
       id="path983-75" />
    <path
       style="fill:none;fill-rule:evenodd;stroke:#005780;stroke-width:0.1;stroke-linecap:round;stroke-dasharray:none;stroke-opacity:0.4;paint-order:stroke markers fill"
       d="M 14.861106,34.786971 H 137.53889"
       id="path983-92" />
    <path
       style="fill:none;fill-rule:evenodd;stroke:#005780;stroke-width:0.1;stroke-linecap:round;stroke-dasharray:none;stroke-opacity:0.4;paint-order:stroke markers fill"
       d="M 14.861105,44.725885 H 137.53889"
       id="path983-28" />
    <path
       style="fill:none;fill-rule:evenodd;stroke:#005780;stroke-width:0.1;stroke-linecap:round;stroke-dasharray:none;stroke-opacity:0.4;paint-order:stroke markers fill"
       d="M 14.861105,54.664798 H 137.53889"
       id="path983-97" />
    <g
       aria-label="Date:    /    /     "
       id="text1497"
       style="font-weight:bold;font-size:4.23333px;font-family:'Noto san';-inkscape-font-specification:'Noto san Bold';text-align:center;text-anchor:middle;fill:none;fill-rule:evenodd;stroke:#005780;stroke-width:0.1;stroke-opacity:0.4;paint-order:stroke markers fill">
      <path
         d="m 96.228005,13.234414 q 0,0.194303 -0.031,0.37207 -0.02894,0.177766 -0.09508,0.330728 -0.06615,0.152963 -0.171566,0.279053 -0.105419,0.124023 -0.258381,0.212907 -0.152963,0.08888 -0.355534,0.138492 -0.202571,0.04754 -0.460953,0.04754 h -0.578776 v -2.701642 h 0.696598 q 0.632519,0 0.942577,0.326595 0.312125,0.324528 0.312125,0.994254 z m -0.386539,0.02687 q 0,-0.28732 -0.05374,-0.485758 -0.05374,-0.198437 -0.163298,-0.320393 -0.109554,-0.121957 -0.274918,-0.1757 -0.165365,-0.05581 -0.388607,-0.05581 h -0.316259 v 2.073257 h 0.274918 q 0.921907,0 0.921907,-1.035595 z"
         style="font-weight:normal;font-family:Consolas;-inkscape-font-specification:Consolas;fill:#000000;stroke:none"
         id="path1759" />
      <path
         d="m 98.04288,14.615207 -0.0083,-0.279053 q -0.169498,0.167432 -0.345198,0.241846 -0.173633,0.07441 -0.365869,0.07441 -0.177767,0 -0.303857,-0.04548 -0.126091,-0.04547 -0.208773,-0.124023 -0.08061,-0.08061 -0.119889,-0.188102 -0.03721,-0.107487 -0.03721,-0.233577 0,-0.312126 0.23151,-0.487825 0.233577,-0.177767 0.68833,-0.177767 h 0.429947 v -0.181901 q 0,-0.183968 -0.117822,-0.293522 -0.117822,-0.111621 -0.359668,-0.111621 -0.175699,0 -0.347265,0.03927 -0.169498,0.03927 -0.351399,0.111621 v -0.324528 q 0.06821,-0.0248 0.150895,-0.04754 0.08475,-0.0248 0.177766,-0.04341 0.09302,-0.0186 0.194304,-0.02894 0.101285,-0.0124 0.204638,-0.0124 0.188102,0 0.338997,0.04134 0.150895,0.04134 0.254248,0.12609 0.10542,0.08475 0.16123,0.212907 0.05581,0.128158 0.05581,0.30179 v 1.430403 z m -0.03927,-0.944645 h -0.456819 q -0.134359,0 -0.23151,0.02687 -0.09715,0.02687 -0.159164,0.07648 -0.06201,0.04961 -0.09302,0.119889 -0.02894,0.06821 -0.02894,0.155029 0,0.05994 0.0186,0.115756 0.0186,0.05374 0.05994,0.09715 0.04134,0.04134 0.107487,0.06615 0.06615,0.02481 0.161231,0.02481 0.124023,0 0.283186,-0.07441 0.16123,-0.07648 0.338997,-0.239779 z"
         style="font-weight:normal;font-family:Consolas;-inkscape-font-specification:Consolas;fill:#000000;stroke:none"
         id="path1761" />
      <path
         d="m 100.70938,14.586268 q -0.12195,0.03101 -0.25218,0.04341 -0.13022,0.01447 -0.26458,0.01447 -0.390675,0 -0.582911,-0.175699 -0.192237,-0.177767 -0.192237,-0.543636 V 12.841673 H 98.83663 v -0.30179 h 0.580842 v -0.570507 l 0.359668,-0.09302 v 0.663525 h 0.93224 v 0.30179 h -0.93224 v 1.054198 q 0,0.223242 0.117822,0.334863 0.119888,0.109554 0.351398,0.109554 0.0992,0 0.21704,-0.01447 0.11782,-0.01654 0.24598,-0.04961 z"
         style="font-weight:normal;font-family:Consolas;-inkscape-font-specification:Consolas;fill:#000000;stroke:none"
         id="path1763" />
      <path
         d="m 103.1175,13.467991 q 0,0.07648 -0.002,0.128157 -0.002,0.05168 -0.006,0.09715 h -1.45727 q 0,0.318326 0.17777,0.489892 0.17776,0.169499 0.51263,0.169499 0.091,0 0.1819,-0.0062 0.091,-0.0083 0.1757,-0.02067 0.0847,-0.0124 0.16123,-0.02687 0.0786,-0.01654 0.14469,-0.03514 v 0.295589 q -0.14676,0.04134 -0.3328,0.06615 -0.18396,0.02687 -0.3824,0.02687 -0.26665,0 -0.45889,-0.07235 -0.19223,-0.07235 -0.31626,-0.208773 -0.12195,-0.138493 -0.1819,-0.33693 -0.0579,-0.200504 -0.0579,-0.452685 0,-0.219108 0.062,-0.413411 0.0641,-0.19637 0.18396,-0.343131 0.12196,-0.148828 0.29766,-0.235645 0.1757,-0.08682 0.39894,-0.08682 0.21704,0 0.38448,0.06821 0.16743,0.06821 0.28111,0.194303 0.11576,0.124023 0.17364,0.303857 0.0599,0.177767 0.0599,0.398942 z m -0.37414,-0.05168 q 0.006,-0.138492 -0.0269,-0.25218 -0.0331,-0.115755 -0.10335,-0.198438 -0.0682,-0.08268 -0.17157,-0.128157 -0.10335,-0.04754 -0.23977,-0.04754 -0.11783,0 -0.21498,0.04547 -0.0971,0.04548 -0.16743,0.128157 -0.0703,0.08268 -0.11369,0.198438 -0.0434,0.115755 -0.0537,0.254247 z"
         style="font-weight:normal;font-family:Consolas;-inkscape-font-specification:Consolas;fill:#000000;stroke:none"
         id="path1765" />
      <path
         d="m 104.52517,12.502676 q 0.0641,0 0.12195,0.02687 0.0579,0.0248 0.10129,0.06821 0.0434,0.04341 0.0682,0.101286 0.0269,0.05788 0.0269,0.121956 0,0.06615 -0.0269,0.124024 -0.0248,0.05581 -0.0682,0.09922 -0.0434,0.04341 -0.10129,0.06821 -0.0579,0.02481 -0.12195,0.02481 -0.0662,0 -0.12403,-0.02481 -0.0558,-0.0248 -0.0992,-0.06821 -0.0434,-0.04341 -0.0682,-0.09922 -0.0248,-0.05788 -0.0248,-0.124024 0,-0.06408 0.0248,-0.121956 0.0248,-0.05788 0.0682,-0.101286 0.0434,-0.04341 0.0992,-0.06821 0.0579,-0.02687 0.12403,-0.02687 z m 0,1.515152 q 0.0641,0 0.12195,0.02687 0.0579,0.02481 0.10129,0.06821 0.0434,0.04341 0.0682,0.101286 0.0269,0.05788 0.0269,0.121956 0,0.06615 -0.0269,0.124024 -0.0248,0.05581 -0.0682,0.09922 -0.0434,0.04341 -0.10129,0.06821 -0.0579,0.02481 -0.12195,0.02481 -0.0662,0 -0.12403,-0.02481 -0.0558,-0.0248 -0.0992,-0.06821 -0.0434,-0.04341 -0.0682,-0.09922 -0.0248,-0.05788 -0.0248,-0.124024 0,-0.06408 0.0248,-0.121956 0.0248,-0.05788 0.0682,-0.101286 0.0434,-0.04341 0.0992,-0.06821 0.0579,-0.02687 0.12403,-0.02687 z"
         style="font-weight:normal;font-family:Consolas;-inkscape-font-specification:Consolas;fill:#000000;stroke:none"
         id="path1767" />
      <path
         d="m 116.99778,11.694457 -1.418,3.365167 h -0.34313 l 1.418,-3.365167 z"
         style="font-weight:normal;font-family:Consolas;-inkscape-font-specification:Consolas;fill:#000000;stroke:none"
         id="path1769" />
      <path
         d="m 128.6353,11.694457 -1.418,3.365167 h -0.34313 l 1.418,-3.365167 z"
         style="font-weight:normal;font-family:Consolas;-inkscape-font-specification:Consolas;fill:#000000;stroke:none"
         id="path1771" />
    </g>
  </g>
</svg>
